<svg width="512" height="512" viewBox="0 0 512 512" fill="none" xmlns="http://www.w3.org/2000/svg">
  <rect width="512" height="512" rx="128" fill="#F9F9F9"/>
  <circle cx="256" cy="256" r="196" fill="#E5F3E7"/>
  <path d="M256 376C245.402 376 236.808 367.406 236.808 356.808V252.985C236.808 242.387 245.402 233.793 256 233.793C266.598 233.793 275.192 242.387 275.192 252.985V356.808C275.192 367.406 266.598 376 256 376Z" fill="#006E1C"/>
  <path d="M248.55 251.086C211.851 251.086 182.101 221.336 182.101 184.637C182.101 147.938 211.851 118.188 248.55 118.188C254.559 118.188 259.429 123.058 259.429 129.067V240.207C259.429 246.216 254.559 251.086 248.55 251.086Z" fill="#4CAF50"/>
  <path d="M263.45 271.054C257.441 271.054 252.571 266.184 252.571 260.175V149.035C252.571 143.026 257.441 138.156 263.45 138.156C300.149 138.156 329.899 167.906 329.899 204.605C329.899 241.304 300.149 271.054 263.45 271.054Z" fill="#0E8F2F"/>
  <path d="M171.667 392.667C171.667 372.788 187.788 356.667 207.667 356.667H304.333C324.212 356.667 340.333 372.788 340.333 392.667V399.333C340.333 406.697 334.364 412.667 327 412.667H185C177.636 412.667 171.667 406.697 171.667 399.333V392.667Z" fill="#7A5649"/>
</svg>
